<!DOCTYPE svg PUBLIC "-//W3C//DTD SVG 20010904//EN" "http://www.w3.org/TR/2001/REC-SVG-20010904/DTD/svg10.dtd">
<svg version="1.0" xmlns="http://www.w3.org/2000/svg" width="183px" height="205px" viewBox="0 0 1830 2050" preserveAspectRatio="xMidYMid meet">
<g id="layer101" fill="#ed4a65" stroke="none">
 <path d="M984 1831 l-97 -101 -191 0 c-136 0 -196 -4 -204 -12 -9 -9 -12 -88 -12 -295 0 -268 -1 -283 -18 -283 -35 0 -140 -61 -180 -104 -23 -24 -53 -68 -69 -98 -25 -48 -28 -63 -28 -153 0 -95 2 -103 34 -163 64 -117 174 -191 300 -200 l67 -4 18 -45 c27 -64 104 -138 183 -176 63 -29 76 -32 169 -32 99 0 104 1 180 40 92 47 151 112 184 203 22 60 22 60 70 66 107 14 234 106 281 203 28 57 37 163 19 220 -32 102 -143 208 -247 236 l-43 11 0 281 c0 205 -3 284 -12 293 -8 8 -51 12 -130 12 l-117 0 -3 98 -3 97 -28 3 c-23 3 -41 -11 -123 -97z m116 -168 c15 -8 64 -13 123 -13 l97 0 0 -267 c0 -148 3 -278 6 -289 4 -16 16 -23 50 -28 91 -12 195 -89 229 -168 8 -21 15 -60 15 -88 0 -139 -120 -248 -282 -258 l-78 -5 0 -42 c0 -58 -50 -156 -101 -196 -111 -88 -275 -93 -392 -12 -49 34 -74 70 -101 145 l-22 60 -89 2 c-79 1 -96 5 -144 31 -98 54 -151 142 -151 250 0 108 53 196 151 250 49 27 63 30 144 30 77 0 96 -3 133 -25 33 -19 47 -22 60 -14 28 18 26 49 -4 73 -30 24 -113 51 -156 51 l-28 0 0 250 0 250 176 0 175 0 77 80 77 80 5 -67 c4 -60 8 -69 30 -80z"/>
 <path d="M652 1548 c-16 -16 -15 -43 2 -57 9 -8 95 -11 291 -9 252 3 279 5 289 21 8 12 8 22 0 35 -10 15 -37 17 -290 20 -209 2 -283 -1 -292 -10z"/>
 <path d="M652 1378 c-16 -16 -15 -43 2 -57 9 -8 95 -11 291 -9 252 3 279 5 289 21 8 12 8 22 0 35 -10 15 -37 17 -290 20 -209 2 -283 -1 -292 -10z"/>
 <path d="M842 1218 c-7 -7 -12 -20 -12 -29 0 -36 22 -40 210 -37 161 3 184 5 194 21 8 12 8 22 0 35 -10 15 -33 17 -195 20 -135 2 -188 -1 -197 -10z"/>
 </g>

</svg>